<?xml version="1.0" encoding="UTF-8" standalone="no"?>
<!-- Generator: Gravit.io -->
<svg xmlns="http://www.w3.org/2000/svg" xmlns:xlink="http://www.w3.org/1999/xlink" style="isolation:isolate" viewBox="0 0 1080 1080" width="1080pt" height="1080pt"><defs><clipPath id="_clipPath_nwwH17MD374GIv7dVACh1FSTpGbO5PmU"><rect width="1080" height="1080"/></clipPath></defs><g clip-path="url(#_clipPath_nwwH17MD374GIv7dVACh1FSTpGbO5PmU)"><rect width="1080" height="1080" style="fill:rgb(0,0,0)" fill-opacity="0"/><circle vector-effect="non-scaling-stroke" cx="476.40195892294037" cy="513.4" r="25.399999999999977" fill="rgb(0,255,155)"/><circle vector-effect="non-scaling-stroke" cx="476.40195892294037" cy="616.5972903428375" r="25.399999999999977" fill="rgb(0,255,155)"/><path d=" M 612.927 743.116 L 585.181 743.116 L 485.637 336.884 L 573.673 336.884 L 635.809 651.59 L 612.927 743.116 L 612.927 743.116 Z " fill="rgb(53,53,53)"/><path d=" M 350.667 743.116 L 322.473 661.409 L 159.635 661.409 L 130.865 743.116 L 45.13 743.116 L 194.734 341.487 L 287.373 341.487 L 436.402 743.116 L 350.667 743.116 Z  M 180.925 599.842 L 300.608 599.842 L 240.766 428.373 L 180.925 599.842 Z " fill-rule="evenodd" fill="rgb(0,255,155)"/><path d=" M 885.708 646.473 L 946.834 336.884 L 1034.87 336.884 L 935.326 743.116 L 861.138 743.116" fill="rgb(0,255,155)"/><path d=" M 861.138 743.116 L 835.206 743.116 L 759.347 448.876 L 789.212 336.884 L 789.212 336.884 L 803.559 336.884 L 884.543 651.056" fill="rgb(53,53,53)"/><line x1="868.727" y1="743.116" x2="863.138" y2="743.116"/><path d=" M 790.212 336.884 L 715.372 336.884 L 634.816 651.628 L 611.927 743.116 L 611.927 743.116 L 683.725 743.116 L 760.253 448.511 L 760.347 448.876 L 790.212 336.884 L 790.212 336.884 Z " fill="rgb(0,255,155)"/></g></svg>